<?xml version="1.0" encoding="iso-8859-1"?>
<!-- Generator: Adobe Illustrator 16.0.0, SVG Export Plug-In . SVG Version: 6.00 Build 0)  -->
<!DOCTYPE svg PUBLIC "-//W3C//DTD SVG 1.1//EN" "http://www.w3.org/Graphics/SVG/1.1/DTD/svg11.dtd">
<svg version="1.1" xmlns="http://www.w3.org/2000/svg" xmlns:xlink="http://www.w3.org/1999/xlink" x="0px" y="0px"
	 width="48.475px" height="57.692px" viewBox="0 0 48.475 57.692" style="enable-background:new 0 0 48.475 57.692;"
	 xml:space="preserve">
<g id="_x31_6_x5F_rss">
	<g>
		<g>
			<g>
				<path style="fill:#44444D;" d="M43.629,57.692H1.846C0.827,57.692,0,56.865,0,55.846V25.5c0-1.02,0.826-1.846,1.846-1.846
					S3.692,24.48,3.692,25.5V54h38.091v-0.235c0-1.02,0.826-1.847,1.846-1.847s1.846,0.827,1.846,1.847v2.081
					C45.475,56.865,44.648,57.692,43.629,57.692z"/>
			</g>
			<g>
				<path style="fill:#44444D;" d="M43.629,30.059c-1.02,0-1.846-0.827-1.846-1.847V3.692H21.938v16.563
					c0,1.02-0.826,1.846-1.846,1.846H1.846c-0.745,0-1.417-0.448-1.704-1.136c-0.286-0.688-0.132-1.481,0.393-2.01L18.781,0.546
					c0.173-0.174,0.371-0.306,0.583-0.397C19.587,0.053,19.833,0,20.092,0h23.537c1.02,0,1.846,0.827,1.846,1.846v26.366
					C45.475,29.231,44.648,30.059,43.629,30.059z M6.275,18.409h11.972V6.331L6.275,18.409z"/>
			</g>
			<g>
				<g>
					<path style="fill:#44444D;" d="M46.629,50.748H1.846C0.827,50.748,0,49.921,0,48.901s0.826-1.847,1.846-1.847h42.937V30.059
						H1.846C0.827,30.059,0,29.231,0,28.212s0.826-1.846,1.846-1.846h44.783c1.02,0,1.846,0.827,1.846,1.846v20.689
						C48.475,49.921,47.648,50.748,46.629,50.748z"/>
				</g>
			</g>
		</g>
		<g>
			<g>
				<path style="fill:#44444D;" d="M15.813,44.903c-0.35,0-0.704-0.099-1.018-0.308l-2.512-1.663v0.124
					c0,1.02-0.826,1.847-1.846,1.847s-1.846-0.827-1.846-1.847V39.52c-0.001-0.016-0.001-0.031,0-0.047v-5.416
					c0-1.02,0.826-1.846,1.846-1.846c2.145,0,7.84,0,7.899,4.542c0.014,1.042-0.364,1.981-1.093,2.72
					c-0.46,0.465-1.054,0.842-1.789,1.132l1.379,0.913c0.85,0.563,1.083,1.709,0.52,2.559
					C16.999,44.613,16.412,44.903,15.813,44.903z M12.284,35.963v1.601c1.967-0.206,2.357-0.712,2.361-0.718
					C14.641,36.487,14.183,36.107,12.284,35.963z"/>
			</g>
			<g>
				<path style="fill:#44444D;" d="M24.57,44.904c-1.32,0.001-2.764-0.393-4.137-1.153c-0.892-0.494-1.214-1.618-0.719-2.51
					c0.494-0.892,1.616-1.214,2.51-0.719c1.539,0.853,2.786,0.747,3.115,0.549c0.019-0.077,0.022-0.122,0.022-0.14
					c0.003,0.008-0.325-0.311-1.689-0.748c-2.651-0.854-3.349-2.477-3.528-3.367c-0.263-1.299,0.234-2.673,1.297-3.585
					c1.99-1.712,5.09-1.081,6.736,0.581c0.717,0.725,0.711,1.895-0.015,2.611c-0.725,0.717-1.894,0.709-2.61-0.015
					c-0.408-0.412-1.358-0.676-1.705-0.378c-0.058,0.051-0.08,0.094-0.084,0.105c0.029,0.013,0.293,0.291,1.038,0.531
					c3.46,1.109,4.824,2.979,4.049,5.553c-0.31,1.033-1.088,1.852-2.19,2.3C26.027,44.778,25.318,44.904,24.57,44.904z"/>
			</g>
			<g>
				<path style="fill:#44444D;" d="M35.399,44.904c-1.32,0.001-2.764-0.393-4.137-1.153c-0.892-0.494-1.214-1.618-0.719-2.51
					c0.494-0.892,1.615-1.214,2.51-0.719c1.539,0.853,2.788,0.747,3.115,0.549c0.019-0.077,0.022-0.122,0.022-0.14
					c0.008,0.008-0.325-0.311-1.689-0.748c-2.651-0.854-3.349-2.477-3.528-3.367c-0.263-1.299,0.234-2.673,1.297-3.585
					c1.99-1.712,5.091-1.081,6.736,0.581c0.717,0.725,0.711,1.895-0.015,2.611c-0.725,0.717-1.894,0.709-2.61-0.015
					c-0.407-0.412-1.358-0.676-1.705-0.378c-0.058,0.051-0.08,0.094-0.084,0.105c0.029,0.013,0.293,0.291,1.038,0.531
					c3.461,1.109,4.824,2.979,4.05,5.553c-0.31,1.033-1.088,1.852-2.19,2.3C36.857,44.778,36.148,44.904,35.399,44.904z"/>
			</g>
		</g>
	</g>
</g>
<g id="Layer_1">
</g>
</svg>
