<?xml version="1.0" encoding="iso-8859-1"?>
<!-- Generator: Adobe Illustrator 16.0.0, SVG Export Plug-In . SVG Version: 6.00 Build 0)  -->
<!DOCTYPE svg PUBLIC "-//W3C//DTD SVG 1.1//EN" "http://www.w3.org/Graphics/SVG/1.1/DTD/svg11.dtd">
<svg version="1.1" xmlns="http://www.w3.org/2000/svg" xmlns:xlink="http://www.w3.org/1999/xlink" x="0px" y="0px"
	 width="57.691px" height="45.9px" viewBox="0 0 57.691 45.9" style="enable-background:new 0 0 57.691 45.9;" xml:space="preserve"
	>
<g id="_x32_6_x5F_heart">
	<g>
		<g>
			<path style="fill:#44444D;" d="M28.979,45.9c-0.275,0-0.555-0.063-0.819-0.193C12.34,37.858,2.184,27.434,0.297,17.105
				c-0.884-4.837,0.223-9.215,3.117-12.33c3.01-3.238,6.814-4.909,11.004-4.767c5.732,0.164,10.921,3.455,14.347,6.932
				c3.425-3.477,8.615-6.768,14.346-6.932c4.184-0.146,7.994,1.527,11.004,4.767c2.911,3.133,4.105,7.484,3.362,12.254
				c-1.432,9.189-9.801,18.712-22.961,26.125c-0.889,0.498-2.014,0.186-2.515-0.702c-0.5-0.889-0.186-2.015,0.702-2.515
				c12.169-6.854,19.869-15.412,21.125-23.477c0.565-3.628-0.294-6.886-2.419-9.172c-2.297-2.473-5.062-3.68-8.192-3.59
				c-4.418,0.127-9.532,2.939-13.03,7.166c-0.702,0.848-2.143,0.848-2.845,0c-3.498-4.227-8.613-7.039-13.03-7.166
				c-3.143-0.09-5.896,1.117-8.193,3.59c-2.082,2.24-2.859,5.49-2.19,9.152C5.58,25.478,15.252,35.182,29.8,42.4
				c0.914,0.453,1.287,1.561,0.833,2.474C30.312,45.523,29.658,45.9,28.979,45.9z"/>
		</g>
	</g>
</g>
<g id="Layer_1">
</g>
</svg>
