<?xml version="1.0" encoding="iso-8859-1"?>
<!-- Generator: Adobe Illustrator 16.0.0, SVG Export Plug-In . SVG Version: 6.00 Build 0)  -->
<!DOCTYPE svg PUBLIC "-//W3C//DTD SVG 1.1//EN" "http://www.w3.org/Graphics/SVG/1.1/DTD/svg11.dtd">
<svg version="1.1" xmlns="http://www.w3.org/2000/svg" xmlns:xlink="http://www.w3.org/1999/xlink" x="0px" y="0px"
	 width="51.865px" height="57.691px" viewBox="0 0 51.865 57.691" style="enable-background:new 0 0 51.865 57.691;"
	 xml:space="preserve">
<g id="_x32_6_x5F_left">
	<g>
		<g>
			<path style="fill:#44444D;" d="M50.02,30.691H1.846C0.827,30.691,0,29.865,0,28.846S0.827,27,1.846,27H50.02
				c1.02,0,1.846,0.826,1.846,1.846S51.039,30.691,50.02,30.691z"/>
		</g>
		<g>
			<path style="fill:#44444D;" d="M28.846,57.691c-0.473,0-0.944-0.18-1.305-0.54l-27-27C0.195,29.805,0,29.335,0,28.846
				s0.195-0.959,0.541-1.306l27.002-27c0.721-0.721,1.89-0.721,2.611,0c0.721,0.722,0.721,1.891-0.001,2.611L4.457,28.846
				L30.151,54.54c0.722,0.722,0.722,1.89,0,2.611C29.791,57.512,29.318,57.691,28.846,57.691z"/>
		</g>
	</g>
</g>
<g id="Layer_1">
</g>
</svg>
