<svg width="51.865" height="57.691" xmlns="http://www.w3.org/2000/svg">

 <g>
  <title>background</title>
  <rect fill="none" id="canvas_background" height="402" width="582" y="-1" x="-1"/>
 </g>
 <g>
  <title>Layer 1</title>
  <g id="_x32_6_x5F_left">
   <g id="svg_1">
    <g id="svg_2">
     <path stroke="#ffffff" id="svg_3" fill="#ffffff" d="m50.02,30.691l-48.174001,0c-1.019,0 -1.846,-0.826 -1.846,-1.844999s0.827,-1.846001 1.846,-1.846001l48.174001,0c1.02,0 1.846001,0.826 1.846001,1.846001s-0.827,1.844999 -1.846001,1.844999z"/>
    </g>
    <g id="svg_4">
     <path stroke="#ffffff" id="svg_5" fill="#ffffff" d="m28.846001,57.691002c-0.473,0 -0.944,-0.18 -1.305,-0.540001l-26.999999,-26.999998c-0.346001,-0.346003 -0.541001,-0.816004 -0.541001,-1.305002s0.195,-0.959 0.541,-1.306l27.002001,-27c0.721001,-0.721 1.889999,-0.721 2.611,0c0.721001,0.722 0.721001,1.891 -0.000999,2.611l-25.696002,25.695l25.693999,25.694c0.722,0.722 0.722,1.889999 0,2.611c-0.359999,0.361 -0.832998,0.540001 -1.304998,0.540001z"/>
    </g>
   </g>
  </g>
  <g id="Layer_1"/>
 </g>
</svg>