<?xml version="1.0" encoding="iso-8859-1"?>
<!-- Generator: Adobe Illustrator 16.0.0, SVG Export Plug-In . SVG Version: 6.00 Build 0)  -->
<!DOCTYPE svg PUBLIC "-//W3C//DTD SVG 1.1//EN" "http://www.w3.org/Graphics/SVG/1.1/DTD/svg11.dtd">
<svg version="1.1" xmlns="http://www.w3.org/2000/svg" xmlns:xlink="http://www.w3.org/1999/xlink" x="0px" y="0px"
	 width="57.693px" height="57.692px" viewBox="0 0 57.693 57.692" style="enable-background:new 0 0 57.693 57.692;"
	 xml:space="preserve">
<g id="_x33_9_x5F_death">
	<g>
		<g>
			<g>
				<g>
					<path style="fill:#44444D;" d="M46.002,57.692c-0.562,0-1.188-0.103-1.874-0.363c-3.999-1.525-3.641-5.539-3.426-7.937
						c0.049-0.554,0.121-1.362,0.075-1.72l-2.198-2.195c-0.721-0.722-0.721-1.89,0-2.611c0.721-0.721,1.891-0.721,2.611,0
						l2.347,2.345c1.143,1.144,0.99,2.854,0.842,4.51c-0.239,2.678-0.114,3.709,1.063,4.158c0.595,0.226,0.848,0.077,0.968,0.007
						c0.983-0.58,1.693-2.927,1.854-4.054c0.115-0.813,0.754-1.45,1.565-1.566c1.308-0.193,3.506-0.919,4.058-1.859
						c0.071-0.121,0.219-0.373-0.008-0.969c-0.448-1.176-1.479-1.301-4.158-1.061c-1.653,0.149-3.363,0.302-4.505-0.837
						c-1.434-1.432-2.513-2.517-2.513-2.517c-0.72-0.723-0.716-1.892,0.007-2.61c0.724-0.72,1.893-0.717,2.61,0.007
						c0.001,0.001,1.001,1.006,2.352,2.355c0.36,0.049,1.167-0.025,1.72-0.076c2.4-0.213,6.413-0.571,7.938,3.424
						c0.71,1.867,0.249,3.292-0.263,4.16c-1.187,2.013-3.806,2.962-5.414,3.371c-0.407,1.607-1.356,4.227-3.368,5.412
						C47.737,57.39,46.966,57.692,46.002,57.692z"/>
				</g>
			</g>
			<g>
				<g>
					<path style="fill:#44444D;" d="M12.781,18.915c-0.479,0-0.959-0.186-1.32-0.556c-0.017-0.017-0.221-0.225-1.438-1.443
						c-0.356-0.046-1.166,0.026-1.721,0.076c-2.403,0.216-6.412,0.574-7.937-3.422c-0.711-1.867-0.25-3.293,0.262-4.161
						C1.813,7.396,4.433,6.448,6.042,6.04C6.45,4.432,7.398,1.813,9.41,0.627c0.867-0.511,2.294-0.974,4.159-0.264
						c3.999,1.527,3.64,5.542,3.426,7.94c-0.05,0.553-0.122,1.359-0.076,1.717l1.458,1.457c0.72,0.723,0.716,1.892-0.007,2.61
						c-0.724,0.72-1.893,0.715-2.61-0.007l-1.602-1.6c-1.142-1.142-0.988-2.853-0.841-4.506c0.239-2.681,0.115-3.712-1.063-4.162
						c-0.595-0.228-0.847-0.077-0.968-0.006c-0.984,0.58-1.694,2.928-1.855,4.055C9.315,8.675,8.676,9.313,7.864,9.429
						c-1.308,0.193-3.506,0.917-4.058,1.857c-0.071,0.121-0.219,0.372,0.009,0.97c0.448,1.175,1.481,1.3,4.156,1.059
						c1.653-0.148,3.364-0.302,4.508,0.837c1.448,1.449,1.626,1.632,1.626,1.632c0.71,0.73,0.693,1.897-0.036,2.608
						C13.71,18.741,13.246,18.915,12.781,18.915z"/>
				</g>
			</g>
		</g>
		<g>
			<g>
				<g>
					<path style="fill:#44444D;" d="M11.693,57.692c-0.964,0-1.735-0.303-2.283-0.626c-2.012-1.186-2.961-3.805-3.368-5.412
						c-1.608-0.409-4.229-1.358-5.415-3.371c-0.511-0.868-0.972-2.294-0.263-4.158c1.524-3.999,5.54-3.64,7.938-3.426
						c0.555,0.051,1.362,0.125,1.721,0.076c1.349-1.349,2.349-2.354,2.349-2.354c0.718-0.724,1.889-0.727,2.61-0.009
						c0.724,0.719,0.728,1.888,0.009,2.61c0,0-1.078,1.085-2.51,2.516c-1.143,1.139-2.853,0.988-4.507,0.839
						c-2.68-0.241-3.711-0.115-4.16,1.063c-0.226,0.594-0.078,0.846-0.008,0.967c0.552,0.94,2.751,1.666,4.063,1.859
						c0.809,0.12,1.446,0.757,1.562,1.566c0.193,1.307,0.917,3.504,1.856,4.055c0.12,0.071,0.37,0.22,0.968-0.009
						c1.177-0.448,1.301-1.479,1.062-4.157c-0.148-1.655-0.301-3.366,0.84-4.508l2.351-2.347c0.722-0.722,1.891-0.721,2.61,0.001
						c0.721,0.722,0.721,1.891-0.001,2.61l-2.198,2.195c-0.046,0.357,0.026,1.166,0.076,1.719c0.214,2.398,0.573,6.412-3.426,7.937
						C12.881,57.59,12.254,57.692,11.693,57.692z"/>
				</g>
			</g>
			<g>
				<g>
					<path style="fill:#44444D;" d="M44.914,18.915c-0.465,0-0.93-0.174-1.288-0.523c-0.729-0.711-0.746-1.878-0.036-2.608
						c0,0,0.178-0.183,1.624-1.63c1.146-1.14,2.855-0.987,4.51-0.839c2.676,0.242,3.708,0.116,4.156-1.06
						c0.227-0.598,0.078-0.85,0.007-0.971c-0.58-0.984-2.928-1.694-4.056-1.855c-0.813-0.115-1.451-0.754-1.566-1.566
						c-0.193-1.307-0.917-3.504-1.857-4.056c-0.121-0.071-0.376-0.217-0.969,0.008c-1.175,0.449-1.3,1.48-1.061,4.161
						c0.148,1.653,0.301,3.364-0.839,4.504l-1.607,1.605c-0.721,0.721-1.891,0.721-2.611,0c-0.721-0.722-0.721-1.89,0-2.611
						l1.456-1.453c0.046-0.358-0.026-1.164-0.075-1.717c-0.215-2.398-0.573-6.413,3.422-7.939c1.867-0.708,3.293-0.249,4.162,0.263
						c2.012,1.187,2.96,3.805,3.368,5.413c1.608,0.408,4.229,1.356,5.414,3.369c0.512,0.868,0.973,2.294,0.263,4.159
						c-1.524,4-5.535,3.64-7.937,3.424c-0.554-0.05-1.365-0.123-1.72-0.076c-1.218,1.218-1.423,1.427-1.439,1.443
						C45.873,18.729,45.394,18.915,44.914,18.915z"/>
				</g>
			</g>
		</g>
		<g>
			<g>
				<g>
					<g>
						<g>
							<path style="fill:#44444D;" d="M26.621,49.104c-0.023,0-0.046,0-0.069-0.001c-1.02-0.038-1.814-0.895-1.776-1.913
								l0.134-3.597c0.038-1.02,0.907-1.816,1.913-1.776c1.02,0.038,1.814,0.895,1.776,1.913l-0.134,3.597
								C28.427,48.323,27.609,49.104,26.621,49.104z"/>
						</g>
					</g>
					<path style="fill:#44444D;" d="M24.031,33.314c-2.309,0.605-5.151-1.146-5.183-4.516c-0.061-7.523,8.964-6.038,8.028,0.818
						C26.583,31.785,25.399,32.964,24.031,33.314z"/>
				</g>
			</g>
			<g>
				<g>
					<g>
						<g>
							<path style="fill:#44444D;" d="M31.077,49.104c-0.988,0-1.807-0.781-1.844-1.776l-0.135-3.597
								c-0.038-1.02,0.757-1.876,1.776-1.914c1.013-0.04,1.876,0.757,1.914,1.775l0.135,3.597c0.038,1.02-0.757,1.876-1.775,1.914
								C31.124,49.104,31.101,49.104,31.077,49.104z"/>
						</g>
					</g>
					<path style="fill:#44444D;" d="M30.82,29.617c-0.937-6.856,8.089-8.342,8.025-0.818c-0.027,3.369-2.872,5.121-5.181,4.516
						C32.298,32.964,31.115,31.785,30.82,29.617z"/>
				</g>
			</g>
		</g>
		<g>
			<path style="fill:#44444D;" d="M22.226,48.909c-0.043,0-0.086-0.001-0.13-0.004c-1.018-0.071-1.784-0.953-1.714-1.97
				c0.104-1.507,0.145-4.72,0.105-6.857c-2.329-0.328-4.204-1.327-5.59-2.982c-3.089-3.692-2.624-9.414-2.072-12.496
				c1.398-7.795,7.581-12.607,16.044-12.469c0.089-0.001,0.179-0.002,0.267-0.002c8.32,0,14.353,4.759,15.733,12.471
				c0.553,3.082,1.018,8.804-2.071,12.496c-1.386,1.655-3.26,2.655-5.59,2.982c-0.04,2.135,0,5.348,0.106,6.855
				c0.071,1.018-0.695,1.899-1.712,1.972c-1.012,0.062-1.899-0.695-1.972-1.712c-0.141-2.004-0.188-7.079-0.043-8.982
				c0.073-0.962,0.876-1.705,1.841-1.705c2.052,0,3.536-0.582,4.537-1.779c1.554-1.856,2.016-5.311,1.269-9.476
				c-1.059-5.918-5.59-9.43-12.141-9.43c-0.15,0-0.3,0-0.448,0c-6.593,0-11.124,3.512-12.185,9.43
				c-0.746,4.165-0.283,7.619,1.27,9.476c1.002,1.197,2.486,1.779,4.539,1.779c0.967,0,1.77,0.745,1.841,1.709
				c0.143,1.904,0.095,6.977-0.044,8.977C23.999,48.165,23.187,48.909,22.226,48.909z"/>
		</g>
		<g>
			<path style="fill:#44444D;" d="M28.185,37.075c-0.371,0-0.746-0.112-1.071-0.345c-0.572-0.409-0.909-0.998-0.95-1.659
				c-0.067-1.098,0.679-1.784,1.079-2.153c0.055-0.05,0.109-0.098,0.154-0.146c0.348-0.477,0.881-0.732,1.471-0.732
				c0.591,0,1.124,0.308,1.472,0.785c-0.001-0.001,0.053,0.038,0.112,0.093c0.401,0.368,1.148,1.055,1.081,2.152
				c-0.04,0.661-0.377,1.25-0.947,1.659c-0.524,0.375-1.178,0.437-1.738,0.223C28.637,37.033,28.412,37.075,28.185,37.075z"/>
		</g>
	</g>
</g>
<g id="Layer_1">
</g>
</svg>
