<?xml version="1.0" encoding="iso-8859-1"?>
<!-- Generator: Adobe Illustrator 16.0.0, SVG Export Plug-In . SVG Version: 6.00 Build 0)  -->
<!DOCTYPE svg PUBLIC "-//W3C//DTD SVG 1.1//EN" "http://www.w3.org/Graphics/SVG/1.1/DTD/svg11.dtd">
<svg version="1.1" xmlns="http://www.w3.org/2000/svg" xmlns:xlink="http://www.w3.org/1999/xlink" x="0px" y="0px"
	 width="57.691px" height="51.984px" viewBox="0 0 57.691 51.984" style="enable-background:new 0 0 57.691 51.984;"
	 xml:space="preserve">
<g id="_x34_5_x5F_trash">
	<g>
		<g>
			<path style="fill:#44444D;" d="M51.846,51.984h-46C2.622,51.984,0,49.362,0,46.139V5.846C0,2.622,2.622,0,5.846,0h21.142
				c2.813,0,6.195,1.861,7.7,4.237l0.521,0.821c0.836,1.319,3.02,2.521,4.582,2.521h16.056c1.02,0,1.846,0.826,1.846,1.846
				s-0.826,1.846-1.846,1.846H39.79c-2.813,0-6.195-1.861-7.7-4.237l-0.521-0.821c-0.836-1.319-3.02-2.521-4.582-2.521H5.846
				c-1.188,0-2.154,0.967-2.154,2.154v40.293c0,1.188,0.967,2.154,2.154,2.154h46c1.188,0,2.154-0.967,2.154-2.154V15.144
				c0-1.02,0.826-1.846,1.846-1.846s1.846,0.826,1.846,1.846v30.995C57.691,49.362,55.069,51.984,51.846,51.984z"/>
		</g>
		<g>
			<g>
				<path style="fill:#44444D;" d="M34.427,43.817H23.298c-2.604,0-4.879-2.025-5.182-4.611l-2.002-17.17
					c-0.118-1.013,0.607-1.93,1.62-2.048c1.008-0.112,1.929,0.607,2.048,1.62l2.002,17.17c0.082,0.705,0.804,1.348,1.514,1.348
					h11.129c0.709,0,1.428-0.642,1.509-1.346l1.976-17.169c0.117-1.013,1.036-1.732,2.045-1.623
					c1.013,0.116,1.739,1.032,1.623,2.045l-1.976,17.169C39.306,41.79,37.032,43.817,34.427,43.817z"/>
			</g>
			<g>
				<path style="fill:#44444D;" d="M40.981,18.526H16.71c-1.02,0-1.846-0.826-1.846-1.846s0.826-1.846,1.846-1.846h24.271
					c1.02,0,1.846,0.826,1.846,1.846S42.001,18.526,40.981,18.526z"/>
			</g>
			<g>
				<g>
					<path style="fill:#44444D;" d="M24.729,34.425c-0.473,0-0.945-0.18-1.306-0.54c-0.721-0.722-0.721-1.891,0-2.611l8.236-8.234
						c0.723-0.721,1.891-0.721,2.611,0c0.721,0.722,0.721,1.891,0,2.611l-8.236,8.234C25.674,34.245,25.202,34.425,24.729,34.425z"
						/>
				</g>
			</g>
			<g>
				<g>
					<path style="fill:#44444D;" d="M32.966,34.425c-0.473,0-0.944-0.18-1.306-0.54l-8.236-8.234c-0.721-0.721-0.721-1.89,0-2.611
						c0.721-0.721,1.889-0.721,2.611,0l8.236,8.234c0.721,0.721,0.721,1.89,0,2.611C33.911,34.245,33.438,34.425,32.966,34.425z"/>
				</g>
			</g>
		</g>
	</g>
</g>
<g id="Layer_1">
</g>
</svg>
