<svg width="43.605" height="43.605" xmlns="http://www.w3.org/2000/svg">

 <g>
  <title>background</title>
  <rect fill="none" id="canvas_background" height="402" width="582" y="-1" x="-1"/>
 </g>
 <g>
  <title>Layer 1</title>
  <g id="_x34_6_x5F_rss">
   <g id="svg_1">
    <g id="svg_2">
     <g id="svg_3">
      <path id="svg_4" fill="#ffffff" d="m15.697,43.027c-1.018999,0 -1.844999,-0.824001 -1.846,-1.843002c-0.006,-3.056 -1.194,-5.924999 -3.347,-8.078999c-2.157,-2.154999 -5.026,-3.344999 -8.079,-3.348c-1.02,-0.000999 -1.845,-0.827999 -1.844,-1.848c0.001,-1.019001 0.827,-1.844 1.846,-1.844c0.001,0 0.001,0 0.002,0c4.037,0.003 7.832,1.576 10.686,4.428999c2.849,2.850002 4.421,6.644001 4.427999,10.684002c0.002001,1.02 -0.823,1.848 -1.842999,1.848999c-0.000999,0 -0.002,0 -0.003,0z"/>
     </g>
     <g id="svg_5">
      <path id="svg_6" fill="#ffffff" d="m28.729,43.316002c-1.02,0 -1.846001,-0.826 -1.846001,-1.845001c-0.001999,-6.611 -2.576,-12.825001 -7.247999,-17.496c-4.674,-4.674 -10.889,-7.249001 -17.499,-7.250999c-1.02,0 -1.846,-0.827001 -1.845,-1.847001c0,-1.019 0.826,-1.845 1.846,-1.845c0,0 0,0 0.001,0c7.595,0.002001 14.736001,2.961 20.108,8.331001c5.368,5.368999 8.326,12.51 8.327999,20.104998c0.001001,1.021 -0.824999,1.848003 -1.844999,1.848003c0,0 0,0 0,0z"/>
     </g>
     <g id="svg_7">
      <path id="svg_8" fill="#ffffff" d="m41.759998,43.605l0,0c-1.019997,0 -1.847,-0.826 -1.845997,-1.846001c0.001999,-10.165998 -3.958,-19.724998 -11.149002,-26.915998c-7.192999,-7.191 -16.752999,-11.152 -26.918999,-11.152c-1.02,0 -1.846,-0.826 -1.846,-1.845s0.826,-1.846 1.846,-1.846c11.152,0 21.64,4.344 29.529999,12.232c7.889,7.889 12.232002,18.375999 12.229,29.526999c0,1.02 -0.826,1.846001 -1.845001,1.846001z"/>
     </g>
    </g>
    <circle id="svg_9" fill="#ffffff" r="2.5" cy="40.527" cx="3.082"/>
   </g>
  </g>
  <g id="Layer_1"/>
 </g>
</svg>