<?xml version="1.0" encoding="iso-8859-1"?>
<!-- Generator: Adobe Illustrator 16.0.0, SVG Export Plug-In . SVG Version: 6.00 Build 0)  -->
<!DOCTYPE svg PUBLIC "-//W3C//DTD SVG 1.1//EN" "http://www.w3.org/Graphics/SVG/1.1/DTD/svg11.dtd">
<svg version="1.1" xmlns="http://www.w3.org/2000/svg" xmlns:xlink="http://www.w3.org/1999/xlink" x="0px" y="0px"
	 width="43.605px" height="43.605px" viewBox="0 0 43.605 43.605" style="enable-background:new 0 0 43.605 43.605;"
	 xml:space="preserve">
<g id="_x34_6_x5F_rss">
	<g>
		<g>
			<g>
				<path style="fill:#44444D;" d="M15.697,43.027c-1.019,0-1.845-0.824-1.846-1.843c-0.006-3.056-1.194-5.925-3.347-8.079
					c-2.157-2.155-5.026-3.345-8.079-3.348c-1.02-0.001-1.845-0.828-1.844-1.848c0.001-1.019,0.827-1.844,1.846-1.844
					c0.001,0,0.001,0,0.002,0c4.037,0.003,7.832,1.576,10.686,4.429c2.849,2.85,4.421,6.644,4.428,10.684
					c0.002,1.02-0.823,1.848-1.843,1.849C15.699,43.027,15.698,43.027,15.697,43.027z"/>
			</g>
			<g>
				<path style="fill:#44444D;" d="M28.729,43.316c-1.02,0-1.846-0.826-1.846-1.845c-0.002-6.611-2.576-12.825-7.248-17.496
					c-4.674-4.674-10.889-7.249-17.499-7.251c-1.02,0-1.846-0.827-1.845-1.847c0-1.019,0.826-1.845,1.846-1.845c0,0,0,0,0.001,0
					c7.595,0.002,14.736,2.961,20.108,8.331c5.368,5.369,8.326,12.51,8.328,20.105C30.575,42.489,29.749,43.316,28.729,43.316
					C28.729,43.316,28.729,43.316,28.729,43.316z"/>
			</g>
			<g>
				<path style="fill:#44444D;" d="M41.76,43.605L41.76,43.605c-1.02,0-1.847-0.826-1.846-1.846
					c0.002-10.166-3.958-19.725-11.149-26.916C21.572,7.652,12.012,3.691,1.846,3.691C0.826,3.691,0,2.865,0,1.846S0.826,0,1.846,0
					c11.152,0,21.64,4.344,29.53,12.232c7.889,7.889,12.232,18.376,12.229,29.527C43.605,42.779,42.779,43.605,41.76,43.605z"/>
			</g>
		</g>
		<circle style="fill:#44444D;" cx="3.082" cy="40.527" r="2.5"/>
	</g>
</g>
<g id="Layer_1">
</g>
</svg>
