<?xml version="1.0" encoding="iso-8859-1"?>
<!-- Generator: Adobe Illustrator 16.0.0, SVG Export Plug-In . SVG Version: 6.00 Build 0)  -->
<!DOCTYPE svg PUBLIC "-//W3C//DTD SVG 1.1//EN" "http://www.w3.org/Graphics/SVG/1.1/DTD/svg11.dtd">
<svg version="1.1" xmlns="http://www.w3.org/2000/svg" xmlns:xlink="http://www.w3.org/1999/xlink" x="0px" y="0px"
	 width="57.691px" height="57.693px" viewBox="0 0 57.691 57.693" style="enable-background:new 0 0 57.691 57.693;"
	 xml:space="preserve">
<g id="_x35_5_x5F_time">
	<g>
		<g>
			<path style="fill:#44444D;" d="M28.845,57.693C12.939,57.693,0,44.754,0,28.848C0,12.94,12.939,0,28.845,0
				c15.906,0,28.847,12.94,28.847,28.848C57.691,44.754,44.751,57.693,28.845,57.693z M28.845,3.691
				c-13.869,0-25.153,11.285-25.153,25.156c0,13.87,11.284,25.154,25.153,25.154C42.715,54.002,54,42.718,54,28.848
				C54,14.977,42.715,3.691,28.845,3.691z"/>
		</g>
		<g>
			<path style="fill:#44444D;" d="M39.278,41.129c-0.473,0-0.945-0.18-1.306-0.54L27.539,30.153c-0.346-0.347-0.54-0.816-0.54-1.306
				v-8.184c0-1.02,0.826-1.846,1.846-1.846s1.846,0.826,1.846,1.846v7.419l9.894,9.895c0.721,0.722,0.721,1.891,0,2.611
				C40.224,40.949,39.751,41.129,39.278,41.129z"/>
		</g>
		<g>
			<path style="fill:#44444D;" d="M49.896,30.695c-1.02,0-1.846-0.826-1.846-1.845c-0.001-1.02,0.825-1.847,1.845-1.847l5.949-0.002
				c0.001,0,0.001,0,0.001,0c1.02,0,1.846,0.826,1.846,1.845c0.001,1.02-0.825,1.847-1.845,1.847L49.896,30.695
				C49.896,30.695,49.896,30.695,49.896,30.695z"/>
		</g>
		<g>
			<path style="fill:#44444D;" d="M7.793,30.695C7.793,30.695,7.793,30.695,7.793,30.695l-5.948-0.002
				c-1.02,0-1.846-0.827-1.845-1.847c0-1.019,0.826-1.845,1.846-1.845c0,0,0,0,0.001,0l5.947,0.002c1.02,0,1.846,0.827,1.845,1.847
				C9.639,29.869,8.813,30.695,7.793,30.695z"/>
		</g>
		<g>
			<path style="fill:#44444D;" d="M28.845,57.693c-1.02,0.001-1.846-0.826-1.846-1.846l-0.001-5.951
				c-0.001-1.02,0.826-1.846,1.846-1.846c1.02-0.001,1.846,0.826,1.846,1.846l0.001,5.951
				C30.691,56.867,29.864,57.693,28.845,57.693z"/>
		</g>
		<g>
			<path style="fill:#44444D;" d="M28.844,9.641L28.844,9.641c-1.02,0-1.847-0.826-1.846-1.846l0.001-5.949
				c0-1.02,0.826-1.846,1.846-1.846l0,0c1.02,0,1.847,0.826,1.846,1.846l-0.001,5.949C30.689,8.814,29.863,9.641,28.844,9.641z"/>
		</g>
		<g>
			<path style="fill:#44444D;" d="M47.934,49.785c-0.473,0-0.945-0.18-1.306-0.54l-4.205-4.205c-0.721-0.722-0.721-1.89,0-2.611
				c0.721-0.721,1.891-0.721,2.611,0l4.205,4.205c0.721,0.722,0.721,1.89,0,2.611C48.879,49.605,48.406,49.785,47.934,49.785z"/>
		</g>
		<g>
			<path style="fill:#44444D;" d="M13.957,15.811c-0.473,0-0.945-0.18-1.306-0.541l-4.207-4.209c-0.721-0.721-0.721-1.89,0.001-2.61
				c0.721-0.721,1.89-0.722,2.61,0.001l4.207,4.209c0.721,0.721,0.721,1.89-0.001,2.61C14.901,15.631,14.43,15.811,13.957,15.811z"
				/>
		</g>
		<g>
			<path style="fill:#44444D;" d="M9.752,49.785c-0.473,0-0.945-0.18-1.306-0.54c-0.721-0.722-0.721-1.89,0-2.611l4.207-4.207
				c0.721-0.721,1.891-0.721,2.611,0c0.721,0.722,0.721,1.89,0,2.611l-4.207,4.207C10.697,49.605,10.225,49.785,9.752,49.785z"/>
		</g>
		<g>
			<path style="fill:#44444D;" d="M43.73,15.807c-0.473,0-0.944-0.18-1.306-0.54c-0.721-0.721-0.721-1.89,0-2.611l4.206-4.207
				c0.721-0.721,1.889-0.721,2.611,0c0.721,0.721,0.721,1.89,0,2.611l-4.206,4.207C44.676,15.627,44.203,15.807,43.73,15.807z"/>
		</g>
	</g>
</g>
<g id="Layer_1">
</g>
</svg>
